<?xml version="1.0" standalone="no"?>
<!DOCTYPE svg PUBLIC "-//W3C//DTD SVG 20010904//EN"
 "http://www.w3.org/TR/2001/REC-SVG-20010904/DTD/svg10.dtd">
<svg version="1.0" xmlns="http://www.w3.org/2000/svg"
 width="353.000000pt" height="353.000000pt" viewBox="0 0 353.000000 353.000000"
 preserveAspectRatio="xMidYMid meet">
<metadata>
Created by potrace 1.14, written by Peter Selinger 2001-2017
</metadata>
<g transform="translate(0.000000,353.000000) scale(0.100000,-0.100000)"
fill="#000000" stroke="none">
<path d="M1530 3349 c-385 -16 -792 -89 -1110 -197 l-85 -29 0 -619 c0 -683 0
-683 67 -894 31 -98 126 -310 138 -310 4 0 10 16 13 35 3 20 25 77 49 128 48
102 46 79 36 392 l-3 110 53 110 c49 101 165 286 226 360 l24 30 26 -24 c22
-20 26 -22 32 -8 3 9 1 40 -5 69 -19 99 -23 184 -11 242 9 45 21 67 63 112 48
53 97 84 131 84 21 0 69 -43 138 -123 l60 -70 167 -2 c221 -4 417 -33 559 -86
l54 -19 -7 30 c-7 30 -6 31 79 71 93 43 170 58 204 40 25 -13 66 -89 75 -138
9 -45 -8 -129 -38 -187 l-25 -48 31 -35 c50 -57 64 -95 53 -145 -6 -28 -15
-44 -27 -46 -13 -3 -17 4 -17 30 0 46 -29 98 -69 125 -74 49 -186 13 -206 -67
-6 -26 50 -156 82 -192 16 -18 66 -24 97 -12 22 8 20 24 -2 24 -28 0 -61 28
-82 70 -26 51 -25 64 5 80 42 23 85 17 113 -15 21 -25 23 -35 18 -77 -6 -44
-5 -48 14 -48 27 0 70 -43 70 -70 0 -35 -27 -76 -59 -90 -16 -6 -37 -20 -47
-31 -15 -17 -15 -20 3 -56 11 -21 41 -78 66 -126 79 -152 73 -242 -24 -371
l-52 -68 -45 5 c-58 6 -92 33 -110 85 -18 54 -36 54 -86 -4 -40 -45 -43 -47
-166 -75 -207 -48 -230 -40 -230 74 0 43 7 84 20 117 11 28 20 64 20 79 0 42
-68 232 -93 259 -27 29 -55 36 -275 67 -205 29 -249 42 -291 90 -26 30 -71
129 -71 156 0 24 -32 69 -49 69 -41 0 -45 -21 -33 -183 11 -160 6 -233 -20
-282 -9 -16 -48 -72 -87 -123 -52 -69 -71 -103 -76 -135 -7 -46 8 -230 26
-320 6 -28 14 -93 19 -143 6 -67 15 -104 35 -145 67 -131 352 -367 728 -600
l127 -80 123 77 c213 134 214 135 206 169 -11 51 -8 207 6 260 7 28 13 41 14
29 2 -35 61 -143 90 -163 60 -43 73 -40 178 45 426 345 695 738 777 1135 33
159 37 261 34 818 l-3 554 -85 29 c-213 73 -490 133 -762 168 -128 16 -573 44
-613 38 -5 0 -89 -5 -185 -9z m766 -2114 c33 -22 30 -41 -14 -85 -48 -48 -91
-60 -222 -60 -148 0 -220 24 -220 72 0 32 105 68 265 92 56 8 166 -3 191 -19z"/>
<path d="M1092 2814 c-43 -52 -54 -99 -42 -181 19 -132 64 -233 106 -233 8 0
41 24 73 54 32 30 68 59 80 65 11 7 21 16 21 22 0 14 -144 269 -164 292 -24
25 -41 21 -74 -19z"/>
<path d="M2384 2692 c-12 -9 -42 -43 -68 -75 -43 -55 -57 -87 -37 -87 5 0 33
-19 61 -41 41 -33 54 -38 62 -28 46 70 63 179 34 224 -19 29 -24 30 -52 7z"/>
<path d="M1594 2359 c-74 -38 -99 -61 -135 -124 -48 -84 -34 -134 36 -121 28
6 42 2 66 -15 40 -28 101 -42 134 -29 29 11 25 30 -7 30 -23 0 -88 61 -88 82
0 8 16 29 35 48 30 29 43 34 94 38 56 4 62 2 91 -26 36 -36 40 -80 10 -107
-30 -27 -25 -34 23 -32 42 2 42 1 69 -53 56 -112 111 -273 112 -327 1 -29 7
-58 14 -65 7 -7 45 -18 85 -25 87 -14 111 -35 96 -86 -13 -45 -11 -77 4 -77
19 0 62 49 84 94 20 43 28 49 93 68 43 12 45 15 48 55 3 35 -1 44 -20 54 -26
15 -231 19 -288 6 -27 -6 -32 -5 -22 5 22 22 13 61 -44 203 -83 208 -128 296
-178 352 -60 66 -97 83 -184 83 -59 0 -79 -5 -128 -31z"/>
</g>
</svg>
